<?xml version="1.0" encoding="utf-8"?>
<!-- Generator: Adobe Illustrator 19.0.0, SVG Export Plug-In . SVG Version: 6.00 Build 0)  -->
<svg version="1.1" id="Capa_1" xmlns="http://www.w3.org/2000/svg" xmlns:xlink="http://www.w3.org/1999/xlink" x="0px" y="0px"
	 viewBox="-49 141 512 512" style="enable-background:new -49 141 512 512;" xml:space="preserve">
<style type="text/css">
	.st0{fill:#212121;}
</style>
<g>
	<path class="st0" d="M207,592C99.5,592,12,504.5,12,397s87.5-195,195-195s195,87.5,195,195S314.5,592,207,592z M207,232
		c-91,0-165,74-165,165s74,165,165,165s165-74,165-165S298,232,207,232z"/>
	<g>
		<path class="st0" d="M372,397c0,91-74,165-165,165v30c107.5,0,195-87.5,195-195s-87.5-195-195-195v30C298,232,372,306,372,397z"/>
		<path class="st0" d="M448,412H297c-8.3,0-15-6.7-15-15s6.7-15,15-15h151c8.3,0,15,6.7,15,15S456.3,412,448,412z"/>
	</g>
	<g>
		<path class="st0" d="M117,412H-34c-8.3,0-15-6.7-15-15s6.7-15,15-15h151c8.3,0,15,6.7,15,15S125.3,412,117,412z"/>
		<path class="st0" d="M207,653c-8.3,0-15-6.7-15-15V487c0-8.3,6.7-15,15-15s15,6.7,15,15v151C222,646.3,215.3,653,207,653z"/>
	</g>
	<path class="st0" d="M222,638V487c0-8.3-6.7-15-15-15v181C215.3,653,222,646.3,222,638z"/>
	<path class="st0" d="M222,156v151c0,8.4-6.6,15-15,15s-15-6.6-15-15V156c0-8.4,6.6-15,15-15S222,147.6,222,156z"/>
	<path class="st0" d="M222,156v151c0,8.4-6.6,15-15,15V141C215.4,141,222,147.6,222,156z"/>
</g>
</svg>
